<?xml version="1.0" encoding="utf-8"?>
<!-- Generator: Adobe Illustrator 22.0.0, SVG Export Plug-In . SVG Version: 6.00 Build 0)  -->
<svg version="1.1" id="Layer_1" xmlns="http://www.w3.org/2000/svg" xmlns:xlink="http://www.w3.org/1999/xlink" x="0px" y="0px"
	 viewBox="0 0 32 32" style="enable-background:new 0 0 32 32;" xml:space="preserve">
<style type="text/css">
	.st0{fill:#FFFFFF;}
</style>
<g>
	<path class="st0" d="M27,8.7H5c-0.3,0-0.5-0.2-0.5-0.5S4.7,7.8,5,7.8H27c0.3,0,0.5,0.2,0.5,0.5S27.3,8.7,27,8.7z"/>
</g>
<g>
	<path class="st0" d="M27,16.5H5c-0.3,0-0.5-0.2-0.5-0.5s0.2-0.5,0.5-0.5H27c0.3,0,0.5,0.2,0.5,0.5S27.3,16.5,27,16.5z"/>
</g>
<g>
	<path class="st0" d="M27,24.2H5c-0.3,0-0.5-0.2-0.5-0.5s0.2-0.5,0.5-0.5H27c0.3,0,0.5,0.2,0.5,0.5S27.3,24.2,27,24.2z"/>
</g>
</svg>
